<?xml version="1.0" standalone="no"?>
<!DOCTYPE svg PUBLIC "-//W3C//DTD SVG 20010904//EN"
 "http://www.w3.org/TR/2001/REC-SVG-20010904/DTD/svg10.dtd">
<svg version="1.0" xmlns="http://www.w3.org/2000/svg"
 width="1679.000000pt" height="1576.000000pt" viewBox="0 0 1679.000000 1576.000000"
 preserveAspectRatio="xMidYMid meet">
<metadata>
Created by potrace 1.15, written by Peter Selinger 2001-2017
</metadata>
<g transform="translate(0.000000,1576.000000) scale(0.100000,-0.100000)"
fill="#000000" stroke="none">
<path d="M7194 12113 c-687 -1242 -1249 -2261 -1249 -2266 0 -9 1014 -597
1030 -597 5 1 343 621 750 1380 407 759 742 1379 745 1380 3 0 326 -608 719
-1351 393 -742 717 -1352 720 -1353 6 -3 973 552 986 566 7 7 -2436 4498
-2446 4498 -4 0 -569 -1016 -1255 -2257z"/>
<path d="M2773 11133 c-208 -174 -396 -370 -579 -600 -432 -542 -727 -1190
-833 -1828 -40 -243 -46 -324 -46 -655 0 -259 4 -353 18 -460 111 -817 447
-1548 1005 -2180 188 -214 490 -497 518 -486 7 3 1042 599 2300 1325 1258 727
2288 1320 2289 1319 1 -2 10 -28 20 -58 56 -174 197 -309 371 -354 90 -23 821
-24 909 -1 218 57 395 274 395 483 0 36 3 43 15 38 12 -4 3447 -1985 4707
-2714 l78 -45 71 59 c178 146 428 405 593 617 473 608 751 1254 847 1970 27
202 36 572 20 783 -66 840 -402 1636 -975 2309 -150 176 -498 511 -551 532 -7
2 -1089 -617 -2405 -1376 -1315 -760 -2394 -1381 -2396 -1381 -2 0 -4 21 -4
48 -1 199 -164 409 -368 472 -60 19 -93 20 -476 20 -247 0 -429 -5 -456 -11
-167 -38 -319 -182 -375 -355 l-20 -62 -2293 1324 c-1261 728 -2297 1324
-2302 1324 -6 0 -40 -26 -77 -57z"/>
<path d="M4079 5197 l-1044 -603 -887 -1604 c-489 -882 -888 -1605 -888 -1607
0 -2 336 -2 747 -1 l747 3 796 1480 c1464 2723 1578 2935 1576 2935 -1 0 -472
-271 -1047 -603z"/>
<path d="M11878 5579 c39 -74 555 -1047 1146 -2164 l1075 -2030 710 -3 c496
-1 711 1 711 8 0 16 -1721 3173 -1734 3182 -22 16 -1952 1130 -1965 1136 -7 3
18 -55 57 -129z"/>
</g>
</svg>
